<?xml version="1.0" standalone="no"?>
<!DOCTYPE svg PUBLIC "-//W3C//DTD SVG 20010904//EN"
 "http://www.w3.org/TR/2001/REC-SVG-20010904/DTD/svg10.dtd">
<svg version="1.0" xmlns="http://www.w3.org/2000/svg"
 width="512.000000pt" height="512.000000pt" viewBox="0 0 512.000000 512.000000"
 preserveAspectRatio="xMidYMid meet">

<g transform="translate(0.000000,512.000000) scale(0.100000,-0.100000)"
fill="#000000" stroke="none">
<path d="M4379 5077 c-73 -21 -137 -64 -184 -125 -24 -31 -183 -250 -352 -485
l-309 -428 -964 1 c-1062 0 -1042 1 -1170 -62 -89 -43 -196 -151 -238 -238
-44 -93 -52 -134 -59 -322 l-6 -166 -291 -4 c-275 -4 -294 -5 -349 -27 -117
-46 -219 -159 -249 -274 -10 -41 -13 -198 -13 -760 l0 -709 24 -19 c30 -24 72
-24 102 0 l24 19 5 724 5 725 30 49 c34 55 111 107 172 118 21 3 152 6 291 6
l252 0 0 -90 0 -90 -277 0 c-299 -1 -303 -1 -323 -54 -7 -18 -10 -387 -10
-1117 l0 -1089 -69 0 -70 0 -3 239 c-3 218 -5 241 -22 260 -24 27 -76 28 -107
2 -24 -19 -24 -21 -27 -260 l-3 -241 -74 0 c-68 0 -75 -2 -95 -28 -21 -25 -22
-35 -18 -172 3 -134 6 -150 32 -208 37 -80 122 -161 203 -194 l58 -23 1911 -3
1911 -2 26 21 c32 25 36 75 10 108 l-18 21 -1910 3 -1910 2 -42 22 c-84 46
-123 119 -123 237 l0 66 1005 0 c966 0 1005 -1 1005 -18 0 -40 33 -110 68
-147 68 -70 89 -75 332 -75 243 0 264 5 332 76 36 38 68 106 68 145 0 18 29
19 1006 19 l1007 0 -5 -83 c-6 -117 -41 -177 -128 -223 -29 -15 -64 -19 -198
-22 -152 -4 -163 -5 -177 -25 -25 -35 -19 -82 13 -107 26 -21 35 -22 187 -18
136 4 169 8 218 27 81 32 166 113 203 193 26 58 29 74 32 208 4 137 3 147 -18
173 -20 25 -27 27 -95 27 l-74 0 -3 1127 c-4 1255 1 1168 -72 1279 -44 66
-118 125 -193 155 -55 22 -73 23 -365 27 l-308 4 0 150 0 150 192 267 c106
146 217 300 247 341 l55 74 12 -29 c15 -36 18 -114 5 -148 -5 -14 -89 -134
-185 -268 -97 -133 -176 -251 -176 -262 0 -25 53 -77 79 -77 33 0 69 42 234
272 206 286 202 279 202 403 0 97 -1 102 -39 171 l-38 70 82 115 c46 63 89
129 97 147 53 127 27 268 -68 363 -78 78 -209 114 -310 86z m158 -163 c81 -39
117 -148 75 -230 -25 -47 -150 -219 -160 -219 -13 0 -272 190 -272 200 1 21
161 226 192 245 41 25 117 26 165 4z m-309 -484 c72 -52 130 -100 128 -106 -4
-10 -916 -1275 -966 -1341 l-17 -22 -141 102 c-83 60 -138 106 -134 113 43 70
980 1353 987 1351 6 -1 70 -45 143 -97z m-814 -552 c-4 -7 -118 -166 -253
-353 -285 -394 -259 -329 -260 -652 -1 -190 0 -204 19 -223 11 -11 32 -20 47
-20 28 0 447 145 470 162 6 5 96 127 200 271 l188 261 3 -115 c1 -63 1 -287 0
-499 l-3 -385 -32 -60 c-63 -120 -175 -198 -307 -214 -78 -9 -107 -31 -108
-80 -2 -51 30 -76 94 -73 136 5 252 57 354 157 131 130 164 233 164 528 l0
187 240 0 240 0 0 -1050 0 -1050 -1910 0 -1910 0 0 1050 0 1050 225 0 225 0 0
-187 c0 -127 5 -211 15 -258 43 -205 195 -362 403 -415 l42 -11 0 -294 c0
-290 0 -294 23 -320 15 -18 33 -26 55 -27 31 -1 58 23 350 315 l317 316 392 3
c388 3 393 3 414 25 31 30 28 81 -6 111 l-26 22 -412 0 -411 0 -268 -267 -268
-268 0 237 c0 234 0 237 -23 264 -20 22 -36 29 -91 35 -134 16 -246 94 -309
214 l-32 60 0 640 0 640 27 57 c51 109 151 189 268 214 82 18 1864 19 1854 2z
m1225 -813 c29 -16 64 -43 77 -60 57 -75 54 -8 54 -1225 l0 -1120 -70 0 -70 0
0 1089 c0 730 -3 1099 -10 1117 -21 53 -23 53 -337 54 l-293 0 0 91 0 90 298
-3 297 -3 54 -30z m-1491 -130 c39 -27 72 -53 72 -56 0 -4 -37 -20 -82 -36
l-83 -29 -3 25 c-5 36 8 153 17 149 4 -2 39 -25 79 -53z m-338 -2441 c0 -8
-13 -29 -29 -45 l-29 -29 -192 0 -192 0 -29 29 c-60 60 -56 61 221 61 221 0
250 -2 250 -16z"/>
<path d="M1714 3287 c-35 -31 -38 -82 -5 -109 22 -17 51 -18 466 -18 415 0
444 1 466 18 33 27 30 78 -5 109 l-27 23 -434 0 -434 0 -27 -23z"/>
<path d="M1714 2757 c-35 -31 -38 -82 -5 -109 22 -17 51 -18 466 -18 415 0
444 1 466 18 33 27 30 78 -5 109 l-27 23 -434 0 -434 0 -27 -23z"/>
</g>
</svg>
