<svg height="512" viewBox="0 0 128 128" width="512" xmlns="http://www.w3.org/2000/svg"><g><g><path d="m65.881 120.112a17.873 17.873 0 0 1 -1.572-21.367l19.718-30.813h-4.235a4.008 4.008 0 1 1 0-8.016h6.362l-6.012-13.127a27.174 27.174 0 0 1 6.608-2.767v-8.081h-74.625v84.309a6 6 0 0 0 6 6h61.237a17.875 17.875 0 0 1 -13.481-6.138z" fill="#ede9e8"/><path d="m121.859 120.112a17.871 17.871 0 0 0 1.572-21.366l-19.717-30.814h-19.687l-19.718 30.813a17.871 17.871 0 0 0 1.572 21.366 17.875 17.875 0 0 0 13.481 6.138h29.016a17.874 17.874 0 0 0 13.481-6.137z" fill="#ffd400"/><path d="m79.792 59.916h28.157a4.008 4.008 0 0 1 4.008 4.008 4.009 4.009 0 0 1 -4.008 4.008h-28.157a4.009 4.009 0 0 1 -4.009-4.008 4.008 4.008 0 0 1 4.009-4.008z" fill="#ff7816"/><path d="m107.6 46.789-6.012 13.127h-15.434l-6.012-13.127a27.209 27.209 0 0 1 27.456 0z" fill="#ffd400"/><path d="m99.42 49.865a1.752 1.752 0 0 0 -2.269.989l-3.281 8.358-3.281-8.358a1.75 1.75 0 0 0 -3.258 1.28l3.055 7.782h6.968l3.055-7.782a1.75 1.75 0 0 0 -.989-2.269z" fill="#fdbf00"/><path d="m7.75 21.938h83.375a6 6 0 0 1 6 6v8a0 0 0 0 1 0 0h-95.375a0 0 0 0 1 0 0v-8a6 6 0 0 1 6-6z" fill="#abe233"/><path d="m27.548 21.938 3.252-9.486a4 4 0 0 1 3.783-2.7h29.7a4 4 0 0 1 3.783 2.7l3.256 9.486h8.458l-4.142-12.084a12 12 0 0 0 -11.35-8.1h-29.7a12 12 0 0 0 -11.35 8.1l-4.149 12.084z" fill="#ffd400"/><g fill="#dfd7d5"><path d="m29.38 118.25a5.505 5.505 0 0 1 -5.5-5.5v-63.3a5.505 5.505 0 0 1 5.5-5.505 5.505 5.505 0 0 1 5.5 5.505v63.3a5.505 5.505 0 0 1 -5.5 5.5z"/><path d="m49.437 118.25a5.5 5.5 0 0 1 -5.5-5.5v-63.3a5.5 5.5 0 0 1 5.5-5.505 5.5 5.5 0 0 1 5.505 5.505v63.3a5.5 5.5 0 0 1 -5.505 5.5z"/><path d="m64.309 98.745 10.691-16.707v-32.593a5.505 5.505 0 1 0 -11.01 0v49.846c.11-.181.204-.367.319-.546z"/></g></g><g><path d="m124.905 97.8-2.82-4.406a1.749 1.749 0 1 0 -2.947 1.886l2.82 4.407a16.122 16.122 0 0 1 -13.58 24.811h-29.016a16.111 16.111 0 0 1 -13.87-24.313l.137-.237c.048-.086.095-.173.149-.256l10.696-16.711 8.51-13.3h17.772l8.48 13.252a1.75 1.75 0 0 0 2.948-1.887l-7.273-11.365h1.037a5.758 5.758 0 1 0 0-11.516h-3.636l4.876-10.648a1.749 1.749 0 0 0 -.708-2.24 28.993 28.993 0 0 0 -29.22 0 1.749 1.749 0 0 0 -.708 2.24l4.876 10.648h-3.636a5.718 5.718 0 0 0 -3.042.878v-9.6a7.255 7.255 0 1 0 -14.51 0v49.379a19.575 19.575 0 0 0 5.948 25.678h-50.063a4.254 4.254 0 0 1 -4.25-4.25v-82.56h83.25a1.749 1.749 0 0 0 1.75-1.75v-8a7.759 7.759 0 0 0 -7.75-7.75h-10.09l-3.742-10.9a13.752 13.752 0 0 0 -13.005-9.29h-29.7a13.752 13.752 0 0 0 -13.006 9.286l-3.742 10.9h-10.09a7.759 7.759 0 0 0 -7.75 7.752v8a1.749 1.749 0 0 0 1.75 1.75h8.625v82.56a7.759 7.759 0 0 0 7.75 7.75h90.253a19.621 19.621 0 0 0 16.527-30.2zm-42.491-50.254a25.5 25.5 0 0 1 22.912 0l-4.863 10.62h-2.422l2.368-6.032a1.75 1.75 0 1 0 -3.258-1.28l-2.87 7.312h-.822l-2.87-7.312a1.75 1.75 0 0 0 -3.258 1.28l2.369 6.032h-2.423zm-2.622 14.12h28.156a2.258 2.258 0 1 1 0 4.516h-28.156a2.258 2.258 0 1 1 0-4.516zm0 8.016h1.037l-4.079 6.374v-7.256a5.718 5.718 0 0 0 3.042.882zm-10.292-23.992a3.76 3.76 0 0 1 3.755 3.755v32.081l-7.515 11.736v-43.817a3.76 3.76 0 0 1 3.76-3.755zm-44.6-35.267a10.25 10.25 0 0 1 9.687-6.923h29.7a10.251 10.251 0 0 1 9.694 6.923l3.352 9.765h-4.756l-2.85-8.3a5.751 5.751 0 0 0 -5.439-3.888h-29.7a5.751 5.751 0 0 0 -5.439 3.884l-2.85 8.3h-4.758zm43.983 9.765h-38.883l2.46-7.167a2.25 2.25 0 0 1 2.127-1.521h29.7a2.251 2.251 0 0 1 2.128 1.521zm-65.383 7.75a4.254 4.254 0 0 1 4.25-4.25h83.375a4.254 4.254 0 0 1 4.25 4.25v6.252h-91.875z"/><path d="m23.875 77.375a1.749 1.749 0 0 0 1.75-1.75v-6.75a1.75 1.75 0 0 0 -3.5 0v6.75a1.749 1.749 0 0 0 1.75 1.75z"/><path d="m22.125 112.745a7.255 7.255 0 0 0 14.51 0v-63.3a7.255 7.255 0 0 0 -14.51 0v7.805a1.75 1.75 0 0 0 3.5 0v-7.8a3.755 3.755 0 1 1 7.51 0v63.3a3.755 3.755 0 0 1 -7.51 0v-25.5a1.75 1.75 0 0 0 -3.5 0z"/><path d="m42.183 49.445v63.3a7.255 7.255 0 1 0 14.509 0v-63.3a7.255 7.255 0 1 0 -14.509 0zm11.009 0v63.3a3.755 3.755 0 1 1 -7.509 0v-63.3a3.755 3.755 0 1 1 7.509 0z"/></g></g></svg>