<svg height="452pt" viewBox="0 0 452.92458 452" width="452pt" xmlns="http://www.w3.org/2000/svg"><path d="m364.214844 180.851562-229.199219 229.195313-17.496094-43.621094-28.34375-2.21875-2.214843-28.339843-43.625-17.5 229.199218-229.195313zm0 0" fill="#34b2cc"/><g fill="#42deff"><path d="m298.6875 115.324219-26.152344-26.152344-229.195312 229.199219 37.328125 14.972656zm0 0"/><path d="m113.113281 362.019531-24.886719-9.984375.949219 12.171875 24.257813 1.898438zm0 0"/><path d="m143.671875 392.578125-16.167969-1.265625 7.511719 18.734375 11.179687-11.175781zm0 0"/></g><path d="m135.015625 420.832031c-4.40625-.003906-8.367187-2.683593-10.011719-6.769531l-15-37.40625-21.667968-1.695312c-5.292969-.417969-9.496094-4.621094-9.910157-9.910157l-1.695312-21.667969-37.40625-15.003906c-3.363281-1.347656-5.824219-4.292968-6.550781-7.84375-.726563-3.550781.375-7.226562 2.9375-9.789062l229.199218-229.199219c4.210938-4.210937 11.039063-4.210937 15.25 0l91.679688 91.679687c4.210937 4.210938 4.210937 11.039063 0 15.25l-229.199219 229.199219c-2.023437 2.023438-4.765625 3.15625-7.625 3.15625zm-35.808594-66.65625 19.152344 1.496094c4.089844.324219 7.640625 2.933594 9.167969 6.742187l11.414062 28.457032 210.023438-210.019532-76.429688-76.429687-210.023437 210.019531 28.460937 11.417969c3.808594 1.527344 6.417969 5.078125 6.742188 9.167969zm0 0"/><path d="m86.960938 346.652344c-4.359376 0-8.292969-2.628906-9.960938-6.65625-1.667969-4.03125-.746094-8.667969 2.335938-11.753906l216.132812-216.132813c4.210938-4.210937 11.039062-4.210937 15.25 0s4.210938 11.035156 0 15.246094l-216.132812 216.136719c-2.019532 2.027343-4.765626 3.164062-7.625 3.160156zm0 0"/><path d="m117.515625 377.207031c-4.359375 0-8.292969-2.625-9.960937-6.65625-1.667969-4.027343-.746094-8.667969 2.339843-11.75l216.132813-216.132812c4.210937-4.210938 11.039062-4.210938 15.25 0 4.210937 4.210937 4.210937 11.039062 0 15.25l-216.136719 216.132812c-2.019531 2.023438-4.761719 3.160157-7.625 3.15625zm0 0"/><path d="m135.015625 410.035156-62.117187 16.28125-11.539063 3.019532-3.34375-34.398438-33.753906-3.882812 2.804687-10.566407 16.285156-62.117187 43.566407 17.46875 2.265625 28.363281 28.359375 2.265625zm0 0" fill="#f2c09a"/><path d="m64.917969 339.9375 23.066406 9.25-1.066406-13.347656-43.566407-17.46875-16.285156 62.117187-2.804687 10.566407 26.460937 3.042968zm0 0" fill="#ffcba3"/><path d="m110.75 385.769531 15.015625 1.199219-8.222656-20.5-8.386719-.671875zm0 0" fill="#ffcba3"/><path d="m79.585938 416.503906-19.691407-2.265625 1.464844 15.097657 11.539063-3.019532 7.449218-1.953125zm0 0" fill="#ffcba3"/><path d="m61.359375 440.121094c-5.550781.003906-10.199219-4.214844-10.730469-9.742188l-2.5-25.726562-25.097656-2.886719c-3.109375-.359375-5.914062-2.050781-7.675781-4.636719-1.765625-2.589844-2.320313-5.8125-1.519531-8.839844l19.085937-72.652343c.78125-2.992188 2.816406-5.503907 5.578125-6.894531 2.761719-1.394532 5.992188-1.53125 8.863281-.382813l43.566407 17.472656c3.800781 1.523438 6.414062 5.070313 6.742187 9.152344l1.53125 19.199219 19.199219 1.53125c4.082031.328125 7.625 2.9375 9.152344 6.738281l17.46875 43.570313c1.152343 2.871093 1.011718 6.097656-.378907 8.863281-1.390625 2.761719-3.902343 4.792969-6.898437 5.578125l-73.660156 19.304687c-.890626.234375-1.804688.351563-2.726563.351563zm-23.480469-58.359375 21.371094 2.460937c5.046875.582032 9.007812 4.613282 9.496094 9.671875l2.125 21.808594 49.585937-13-10.433593-26.019531-21.699219-1.730469c-5.277344-.425781-9.464844-4.617187-9.886719-9.890625l-1.734375-21.699219-26.023437-10.433593zm0 0"/><path d="m272.535156 89.171875 36.671875-36.671875 91.679688 91.679688-36.671875 36.671874zm0 0" fill="#fad87c"/><path d="m272.535156 89.171875 36.671875-36.671875 26.152344 26.152344-36.671875 36.671875zm0 0" fill="#ffe399"/><path d="m364.214844 191.632812c-2.859375.003907-5.605469-1.132812-7.625-3.15625l-91.679688-91.679687c-4.210937-4.210937-4.210937-11.039063 0-15.25l36.671875-36.667969c4.210938-4.214844 11.039063-4.214844 15.25 0l91.675781 91.675782c4.214844 4.210937 4.214844 11.039062 0 15.25l-36.667968 36.671874c-2.019532 2.023438-4.765625 3.160157-7.625 3.15625zm-76.429688-102.460937 76.429688 76.429687 21.421875-21.421874-76.429688-76.429688zm0 0"/><path d="m313.789062 57.085938 45.839844-45.839844 82.511719 82.511718-45.839844 45.839844zm0 0" fill="#e3646a"/><path d="m335.359375 78.652344 45.839844-45.839844-21.570313-21.566406-45.839844 45.839844 82.511719 82.511718zm0 0" fill="#ff7177"/><path d="m396.304688 150.378906c-2.863282.003906-5.605469-1.132812-7.625-3.160156l-82.511719-82.511719c-4.214844-4.210937-4.214844-11.039062 0-15.25l45.835937-45.835937c4.210938-4.210938 11.039063-4.210938 15.25 0l82.511719 82.511718c4.210937 4.210938 4.210937 11.039063 0 15.25l-45.835937 45.835938c-2.019532 2.027344-4.765626 3.164062-7.625 3.160156zm-67.261719-93.296875 67.261719 67.261719 30.585937-30.585938-67.261719-67.261718zm0 0"/><path d="m61.359375 429.335938-50.574219 13.265624 13.476563-51.546874 33.753906 3.882812zm0 0" fill="#5a6570"/><path d="m45.203125 393.460938-20.941406-2.40625-13.476563 51.546874 23.15625-6.074218zm0 0" fill="#74818f"/><path d="m10.785156 453.386719c-3.34375 0-6.496094-1.546875-8.539062-4.191407-2.042969-2.644531-2.742188-6.089843-1.894532-9.320312l13.480469-51.550781c1.386719-5.175781 6.339844-8.566407 11.664063-7.988281l33.753906 3.886718c5.046875.582032 9.007812 4.613282 9.496094 9.671875l3.34375 34.402344c.515625 5.265625-2.871094 10.128906-7.992188 11.472656l-50.574218 13.261719c-.894532.234375-1.816407.355469-2.738282.355469zm21.546875-50.550781-6.453125 24.660156 23.859375-6.257813-1.609375-16.585937zm0 0"/></svg>