<svg enable-background="new 0 0 32 32" viewBox="0 0 32 32" xmlns="http://www.w3.org/2000/svg"><g id="Grid" display="none"/><g id="document"/><g id="letter"/><g id="smartphone"/><g id="loading"/><g id="new_email"/><g id="email"/><g id="write"/><g id="inbox"/><g id="outbox"/><g id="computer"/><g id="add_email"/><g id="delete_email"/><g id="sending_email"/><g id="block_email"/><g id="post_mail"/><g id="attachment"/><g id="emails"/><g id="refresh"/><g id="envelope"/><g id="website"/><g id="new_mail"/><g id="delete"><path d="m26.275 5.528h-4.197l-.814-2.662c-.322-1.056-1.281-1.766-2.386-1.766h-5.757c-1.105 0-2.064.71-2.386 1.766l-.813 2.662h-4.197c-1.308 0-2.372 1.064-2.372 2.372v2.336c0 1.132.798 2.078 1.86 2.313v14.451c0 2.15 1.75 3.9 3.9 3.9h13.773c2.15 0 3.9-1.75 3.9-3.9v-14.452c1.062-.235 1.86-1.181 1.86-2.313v-2.335c0-1.308-1.063-2.372-2.371-2.372zm-13.818-2.136c.09-.294.357-.492.665-.492h5.757c.308 0 .575.198.665.492l.653 2.136h-8.392zm10.43 25.708h-13.774c-1.158 0-2.1-.942-2.1-2.1v-14.393h17.974v14.393c0 1.158-.943 2.1-2.1 2.1zm3.96-18.864c0 .315-.256.572-.572.572h-20.55c-.315 0-.572-.256-.572-.572v-2.336c0-.315.256-.572.572-.572h20.55c.315 0 .572.256.572.572z" fill="#6621ba"/><g fill="#f98a17"><path d="m11.057 14.808c-.497 0-.9.403-.9.9v10.292c0 .497.403.9.9.9s.9-.403.9-.9v-10.292c0-.498-.403-.9-.9-.9z"/><path d="m16 14.808c-.497 0-.9.403-.9.9v10.292c0 .497.403.9.9.9s.9-.403.9-.9v-10.292c0-.498-.403-.9-.9-.9z"/><path d="m20.943 14.808c-.497 0-.9.403-.9.9v10.292c0 .497.403.9.9.9s.9-.403.9-.9v-10.292c0-.498-.403-.9-.9-.9z"/></g></g><g id="forward"/><g id="reply"/><g id="love_letter"/></svg>