<svg fill="none" height="24" viewBox="0 0 24 24" width="24" xmlns="http://www.w3.org/2000/svg" xmlns:xlink="http://www.w3.org/1999/xlink"><linearGradient id="paint0_linear_2_1919" gradientUnits="userSpaceOnUse" x1="3.874" x2="3.874" y1="3" y2="21.078"><stop offset="0" stop-color="#e100ff"/><stop offset="1" stop-color="#7f00ff"/></linearGradient><path d="m21 12c.0174 2.0246-.6483 3.996-1.8897 5.5955-1.2413 1.5995-2.9858 2.7337-4.9513 3.2193-1.9656.4857-4.0376.2943-5.88098-.5431-1.84341-.8374-3.35061-2.2719-4.27803-4.0717-.06475-.1165-.10555-.2448-.12001-.3773-.01445-.1325-.00227-.2666.03583-.3943s.10136-.2466.18605-.3495c.08468-.1029.1891-.1879.3071-.2499s.2472-.0998.38001-.1111c.13281-.0114.26655.0039.39336.045.1268.0411.24411.1071.34503.1942.10093.0871.18342.1935.24263.3129.42261.7939.9928 1.4998 1.68 2.08 1.03269.8793 2.2986 1.4397 3.64381 1.613 1.3452.1733 2.7118-.048 3.9337-.6369 1.2218-.5889 2.2462-1.5201 2.9487-2.6804.7024-1.1602 1.0527-2.4996 1.0082-3.8552-.0446-1.3556-.482-2.66908-1.2591-3.78073-.7771-1.11166-1.8604-1.9736-3.1182-2.48106-1.2579-.50745-2.636-.63855-3.967-.37735-1.33095.2612-2.55735.90344-3.53011 1.84864h1.89c.26522 0 .51957.10536.70711.29289.18754.18754.29289.44189.29289.70711s-.10535.51957-.29289.70711c-.18754.18753-.44189.29289-.70711.29289h-4c-.26521 0-.51957-.10536-.7071-.29289-.18754-.18754-.2929-.44189-.2929-.70711v-4c0-.26522.10536-.51957.2929-.70711.18753-.18753.44189-.29289.7071-.29289.26522 0 .51957.10536.70711.29289.18754.18754.29289.44189.29289.70711v1.3c1.29445-1.15779 2.89623-1.91634 4.61211-2.18415 1.7159-.26781 3.4727-.03344 5.0584.67484 1.5857.70827 2.9326 1.8602 3.8782 3.31685.9457 1.45664 1.4497 3.15576 1.4513 4.89246zm-9-3c-.2652 0-.5196.10536-.7071.29289-.1876.18754-.2929.44189-.2929.70711v2c.0011.2623.1052.5137.29.7l2 2c.1883.1883.4437.2941.71.2941s.5217-.1058.71-.2941.2941-.4437.2941-.71-.1058-.5217-.2941-.71l-1.71-1.69v-1.59c0-.26522-.1054-.51957-.2929-.70711-.1875-.18753-.4419-.29289-.7071-.29289z" fill="url(#paint0_linear_2_1919)"/></svg>